<svg width="90" height="62" viewBox="0 0 90 62" fill="none" xmlns="http://www.w3.org/2000/svg">
<path d="M8.03124 41.238C6.64495 40.0016 7.04365 37.7384 8.76916 37.0501L36.2296 26.0971C38.3151 25.2652 40.3548 27.3908 39.4378 29.4402L27.6091 55.878C26.8775 57.5132 24.714 57.8708 23.4951 56.5582L15.2341 47.6617L15.218 47.6446L15.1997 47.6293L8.03124 41.238Z" fill="#B90E03" stroke="black"/>
<path d="M10.7845 17.0357C10.7921 13.754 13.8438 11.348 17.0353 12.1086C27.5451 14.6133 33.4865 17.9991 39.5617 23.8229C41.7966 25.9658 41.5397 29.5952 39.0525 31.4703C33.2782 35.8234 28.2866 38.6008 21.3157 41.4739C18.5577 42.6104 15.4162 41.2084 14.4495 38.3938C11.6507 30.2423 10.7676 24.3065 10.7845 17.0357Z" fill="#B90E03" stroke="black"/>
<path d="M81.9697 41.1692C83.356 39.9327 82.9573 37.6695 81.2318 36.9812L53.7713 26.0282C51.6859 25.1964 49.6462 27.3219 50.5632 29.3713L62.3919 55.8092C63.1235 57.4443 65.2869 57.802 66.5059 56.4893L74.7668 47.5929L74.783 47.5758L74.8013 47.5605L81.9697 41.1692Z" fill="#B90E03" stroke="black"/>
<path d="M79.2155 16.9664C79.2079 13.6846 76.1562 11.2786 72.9647 12.0392C62.4549 14.544 56.5135 17.9297 50.4383 23.7536C48.2034 25.8965 48.4603 29.5259 50.9475 31.4009C56.7218 35.7541 61.7134 38.5314 68.6843 41.4046C71.4423 42.5411 74.5838 41.139 75.5505 38.3244C78.3493 30.173 79.2324 24.2372 79.2155 16.9664Z" fill="#B90E03" stroke="black"/>
<path d="M44.9766 19.7007C49.5205 19.7007 53.204 23.3843 53.2041 27.9282C53.2041 32.4723 49.5206 36.1558 44.9766 36.1558C40.4326 36.1557 36.749 32.4722 36.749 27.9282C36.7491 23.3843 40.4327 19.7008 44.9766 19.7007Z" fill="#F1A81A" stroke="black"/>
</svg>
