<svg width="80" height="80" viewBox="0 0 80 80" fill="none" xmlns="http://www.w3.org/2000/svg">
<path d="M3.03124 50.238C1.64495 49.0016 2.04365 46.7384 3.76916 46.0501L31.2296 35.0971C33.3151 34.2652 35.3548 36.3908 34.4378 38.4402L22.6091 64.878C21.8775 66.5132 19.714 66.8708 18.4951 65.5582L10.2341 56.6617L10.218 56.6446L10.1997 56.6293L3.03124 50.238Z" fill="#B90E03" stroke="black"/>
<path d="M5.78447 26.0357C5.79209 22.754 8.8438 20.348 12.0353 21.1086C22.5451 23.6133 28.4865 26.9991 34.5617 32.8229C36.7966 34.9658 36.5397 38.5952 34.0525 40.4703C28.2782 44.8234 23.2866 47.6008 16.3157 50.4739C13.5577 51.6104 10.4162 50.2084 9.44955 47.3938C6.65069 39.2423 5.7676 33.3065 5.78447 26.0357Z" fill="#B90E03" stroke="black"/>
<path d="M76.9697 50.1692C78.356 48.9327 77.9573 46.6695 76.2318 45.9812L48.7713 35.0282C46.6859 34.1964 44.6462 36.3219 45.5632 38.3713L57.3919 64.8092C58.1235 66.4443 60.2869 66.802 61.5059 65.4893L69.7668 56.5929L69.783 56.5758L69.8013 56.5605L76.9697 50.1692Z" fill="#B90E03" stroke="black"/>
<path d="M74.2155 25.9664C74.2079 22.6846 71.1562 20.2786 67.9647 21.0392C57.4549 23.544 51.5135 26.9297 45.4383 32.7536C43.2034 34.8965 43.4603 38.5259 45.9475 40.4009C51.7218 44.7541 56.7134 47.5314 63.6843 50.4046C66.4423 51.5411 69.5838 50.139 70.5505 47.3244C73.3493 39.173 74.2324 33.2372 74.2155 25.9664Z" fill="#B90E03" stroke="black"/>
<path d="M39.9766 28.7007C44.5205 28.7007 48.204 32.3843 48.2041 36.9282C48.2041 41.4723 44.5206 45.1558 39.9766 45.1558C35.4326 45.1557 31.749 41.4722 31.749 36.9282C31.7491 32.3843 35.4327 28.7008 39.9766 28.7007Z" fill="#F1A81A" stroke="black"/>
</svg>
