<svg width="80" height="80" viewBox="0 0 80 80" fill="none" xmlns="http://www.w3.org/2000/svg">
<path d="M39.5244 3.08203C39.6741 2.62138 40.3259 2.62137 40.4756 3.08203L48.2803 27.1025C48.4811 27.7205 49.0572 28.1396 49.707 28.1396H74.9648C75.4489 28.1399 75.6504 28.7592 75.2588 29.0439L54.8252 43.8896C54.2995 44.2716 54.0796 44.9484 54.2803 45.5664L62.085 69.5879C62.2346 70.0485 61.7073 70.4319 61.3154 70.1475L40.8818 55.3008C40.3561 54.9189 39.6439 54.9189 39.1182 55.3008L18.6846 70.1475C18.2927 70.4319 17.7654 70.0485 17.915 69.5879L25.7197 45.5664C25.9204 44.9484 25.7005 44.2716 25.1748 43.8896L4.74121 29.0439C4.34963 28.7592 4.55105 28.1399 5.03516 28.1396H30.293C30.9428 28.1396 31.5189 27.7206 31.7197 27.1025L39.5244 3.08203Z" fill="#F1A81A" stroke="black"/>
<circle cx="40" cy="40" r="11" fill="#B90E03"/>
<circle cx="59" cy="46" r="3.5" fill="#B90E03" stroke="#F1A81A"/>
<circle cx="40" cy="60" r="3.5" fill="#B90E03" stroke="#F1A81A"/>
<circle cx="21" cy="46" r="3.5" fill="#B90E03" stroke="#F1A81A"/>
<circle cx="40" cy="25" r="3.5" fill="#B90E03" stroke="#F1A81A"/>
</svg>
