<svg width="553" height="178" viewBox="0 0 553 178" fill="none" xmlns="http://www.w3.org/2000/svg">
<path d="M156.909 142.64C160.829 142.64 164.029 143.86 166.509 146.3C168.989 148.7 170.229 152.2 170.229 156.8V176H166.089V157.28C166.089 153.72 165.189 151 163.389 149.12C161.629 147.24 159.209 146.3 156.129 146.3C152.969 146.3 150.449 147.3 148.569 149.3C146.689 151.3 145.749 154.24 145.749 158.12V176H141.549V143.24H145.749V148.82C146.789 146.82 148.289 145.3 150.249 144.26C152.209 143.18 154.429 142.64 156.909 142.64Z" fill="black"/>
<path d="M99.1406 159.56C99.1406 156.2 99.8006 153.26 101.121 150.74C102.481 148.18 104.341 146.22 106.701 144.86C109.101 143.46 111.801 142.76 114.801 142.76C117.921 142.76 120.601 143.48 122.841 144.92C125.121 146.36 126.761 148.2 127.761 150.44V143.24H131.961V176H127.761V168.74C126.721 170.98 125.061 172.84 122.781 174.32C120.541 175.76 117.861 176.48 114.741 176.48C111.781 176.48 109.101 175.78 106.701 174.38C104.341 172.98 102.481 171 101.121 168.44C99.8006 165.88 99.1406 162.92 99.1406 159.56ZM127.761 159.62C127.761 156.98 127.221 154.66 126.141 152.66C125.061 150.66 123.581 149.12 121.701 148.04C119.861 146.96 117.821 146.42 115.581 146.42C113.261 146.42 111.181 146.94 109.341 147.98C107.501 149.02 106.041 150.54 104.961 152.54C103.921 154.5 103.401 156.84 103.401 159.56C103.401 162.24 103.921 164.6 104.961 166.64C106.041 168.64 107.501 170.18 109.341 171.26C111.181 172.3 113.261 172.82 115.581 172.82C117.821 172.82 119.861 172.28 121.701 171.2C123.581 170.12 125.061 168.58 126.141 166.58C127.221 164.58 127.761 162.26 127.761 159.62Z" fill="black"/>
<path d="M81.7547 176.48C77.9947 176.48 74.9147 175.62 72.5147 173.9C70.1547 172.14 68.8347 169.76 68.5547 166.76H72.8747C73.0747 168.6 73.9347 170.1 75.4547 171.26C77.0147 172.38 79.0947 172.94 81.6947 172.94C83.9747 172.94 85.7547 172.4 87.0347 171.32C88.3547 170.24 89.0147 168.9 89.0147 167.3C89.0147 166.18 88.6547 165.26 87.9347 164.54C87.2147 163.82 86.2947 163.26 85.1747 162.86C84.0947 162.42 82.6147 161.96 80.7347 161.48C78.2947 160.84 76.3147 160.2 74.7947 159.56C73.2747 158.92 71.9747 157.98 70.8947 156.74C69.8547 155.46 69.3347 153.76 69.3347 151.64C69.3347 150.04 69.8147 148.56 70.7747 147.2C71.7347 145.84 73.0947 144.76 74.8547 143.96C76.6147 143.16 78.6147 142.76 80.8547 142.76C84.3747 142.76 87.2147 143.66 89.3747 145.46C91.5347 147.22 92.6947 149.66 92.8547 152.78H88.6547C88.5347 150.86 87.7747 149.32 86.3747 148.16C85.0147 146.96 83.1347 146.36 80.7347 146.36C78.6147 146.36 76.8947 146.86 75.5747 147.86C74.2547 148.86 73.5947 150.1 73.5947 151.58C73.5947 152.86 73.9747 153.92 74.7347 154.76C75.5347 155.56 76.5147 156.2 77.6747 156.68C78.8347 157.12 80.3947 157.62 82.3547 158.18C84.7147 158.82 86.5947 159.44 87.9947 160.04C89.3947 160.64 90.5947 161.52 91.5947 162.68C92.5947 163.84 93.1147 165.38 93.1547 167.3C93.1547 169.06 92.6747 170.64 91.7147 172.04C90.7547 173.4 89.4147 174.48 87.6947 175.28C85.9747 176.08 83.9947 176.48 81.7547 176.48Z" fill="black"/>
<path d="M60.8859 143.24V176H56.6859V170.24C55.7259 172.28 54.2459 173.84 52.2459 174.92C50.2459 176 48.0059 176.54 45.5259 176.54C41.6059 176.54 38.4059 175.34 35.9259 172.94C33.4459 170.5 32.2059 166.98 32.2059 162.38V143.24H36.3459V161.9C36.3459 165.46 37.2259 168.18 38.9859 170.06C40.7859 171.94 43.2259 172.88 46.3059 172.88C49.4659 172.88 51.9859 171.88 53.8659 169.88C55.7459 167.88 56.6859 164.94 56.6859 161.06V143.24H60.8859Z" fill="black"/>
<path d="M13.2 176.48C9.44 176.48 6.36 175.62 3.96 173.9C1.6 172.14 0.28 169.76 0 166.76H4.32C4.52 168.6 5.38 170.1 6.9 171.26C8.46 172.38 10.54 172.94 13.14 172.94C15.42 172.94 17.2 172.4 18.48 171.32C19.8 170.24 20.46 168.9 20.46 167.3C20.46 166.18 20.1 165.26 19.38 164.54C18.66 163.82 17.74 163.26 16.62 162.86C15.54 162.42 14.06 161.96 12.18 161.48C9.74 160.84 7.76 160.2 6.24 159.56C4.72 158.92 3.42 157.98 2.34 156.74C1.3 155.46 0.78 153.76 0.78 151.64C0.78 150.04 1.26 148.56 2.22 147.2C3.18 145.84 4.54 144.76 6.3 143.96C8.06 143.16 10.06 142.76 12.3 142.76C15.82 142.76 18.66 143.66 20.82 145.46C22.98 147.22 24.14 149.66 24.3 152.78H20.1C19.98 150.86 19.22 149.32 17.82 148.16C16.46 146.96 14.58 146.36 12.18 146.36C10.06 146.36 8.34 146.86 7.02 147.86C5.7 148.86 5.04 150.1 5.04 151.58C5.04 152.86 5.42 153.92 6.18 154.76C6.98 155.56 7.96 156.2 9.12 156.68C10.28 157.12 11.84 157.62 13.8 158.18C16.16 158.82 18.04 159.44 19.44 160.04C20.84 160.64 22.04 161.52 23.04 162.68C24.04 163.84 24.56 165.38 24.6 167.3C24.6 169.06 24.12 170.64 23.16 172.04C22.2 173.4 20.86 174.48 19.14 175.28C17.42 176.08 15.44 176.48 13.2 176.48Z" fill="black"/>
<path d="M189.12 174.691C224.12 148.441 252.716 62.191 257.216 32.691C261.716 3.19098 240.716 1.69099 237.216 32.691C233.716 63.691 217.58 176.691 259.08 174.691C300.58 172.691 286.58 133.191 286.58 133.191C286.58 133.191 279.34 114.883 273.716 133.191C268.091 151.499 274.716 178.691 295.216 174.691C315.716 170.691 324.716 150.191 321.716 133.191C318.716 116.191 308.216 125.191 306.716 133.191C305.216 141.191 301.468 164.797 327.716 174.691C353.964 184.584 397.716 133.5 405.12 110.5C412.524 87.5 463.12 82 463.12 82" stroke="black" stroke-width="4"/>
<path d="M549.62 16L471.12 38L491.12 50.5M549.62 16L526.62 71.5L501.12 56M549.62 16L501.12 56M549.62 16L491.12 50.5M501.12 56L493.62 72.5M491.12 50.5L493.62 72.5M493.62 72.5L511.12 62.0784" stroke="black" stroke-width="3"/>
</svg>
