<svg width="1003" height="993" viewBox="0 0 1003 993" fill="none" xmlns="http://www.w3.org/2000/svg">
<path d="M996 523.094C996 631.618 773.606 720.015 500.49 720.015C227.374 720.015 3 632.039 3 523.515C3 414.991 227.374 327.015 500.49 327.015C773.606 327.015 996 414.57 996 523.094Z" fill="#484848"/>
<path d="M505.491 982.068C756.444 982.068 960.076 805.74 990.335 528.68C991.064 522.01 984.136 516.303 976.883 519.323C794.485 595.288 648.11 631.895 501.283 630.886C354.505 629.878 208.168 591.283 25.8809 518.316C18.6783 515.433 11.8887 521.095 12.6113 527.693C43.0097 805.103 254.076 982.068 505.491 982.068Z" fill="#F8F8F8" stroke="#252525" stroke-width="20"/>
<path d="M501.506 20.8844C751.062 20.8846 958.556 232.409 988.488 507.87C989.192 514.353 982.69 519.966 975.547 517.459C806.434 458.092 666.892 429.227 520.507 430.029C376.52 430.817 226.521 460.306 35.9294 516.874L26.823 519.589C19.8073 521.688 13.6464 516.156 14.3074 509.885C43.4513 233.454 251.349 20.8844 501.506 20.8844Z" fill="#FF4C41" stroke="#252525" stroke-width="20"/>
<ellipse cx="501.085" cy="423.056" rx="183.003" ry="163.042" fill="#252525"/>
<ellipse cx="501.085" cy="423.056" rx="116.457" ry="103.754" fill="#F8F8F8"/>
<g filter="url(#filter0_d_2_56)">
<ellipse cx="501.085" cy="423.056" rx="83.1832" ry="74.1098" fill="#F8F8F8"/>
<path d="M501.086 358.946C542.621 358.947 574.268 388.704 574.268 423.056C574.268 457.408 542.621 487.166 501.086 487.166C459.551 487.166 427.902 457.408 427.902 423.056C427.902 388.704 459.551 358.946 501.086 358.946Z" stroke="#252525" stroke-width="20"/>
</g>
<path d="M10.4679 519.758C7.13244 508.23 13.1801 496.08 24.4025 491.841C136.576 449.47 211.654 428.492 337.449 403.058C349.11 400.7 360.686 407.717 363.991 419.141V419.141C367.797 432.296 359.227 445.754 345.72 448.057C233.282 467.231 159.018 489.47 41.4412 535.027C28.6591 539.979 14.2793 532.932 10.4679 519.758V519.758Z" fill="#252525"/>
<path d="M639.052 413.356C642.282 401.797 653.818 394.645 665.593 396.942C783.287 419.9 858.175 441.543 978.541 486.069C989.699 490.196 995.851 502.252 992.651 513.706V513.706C988.966 526.895 974.596 533.833 961.898 528.689C856.185 485.863 781.325 465.721 657.36 442.63C643.883 440.12 635.362 426.564 639.052 413.356V413.356Z" fill="#252525"/>
<path d="M197.982 281.61C197.982 281.61 309.575 197.672 370.282 133.518C384.04 118.979 398.975 106.783 404.609 95.4954C414.857 74.9642 363.732 88.3312 341.126 96.1294C255.681 125.605 167.86 196.769 137.143 278.595C128.764 300.916 128.414 320.709 145.232 320.541C156.741 320.426 197.982 281.61 197.982 281.61Z" fill="white" fill-opacity="0.8"/>
<path d="M89.3676 352.633C84.8202 364.26 84.1178 379.775 94.8713 384.157C105.466 388.475 118.62 365.413 118.62 365.413C118.62 365.413 130.189 340.038 120.426 334.267C113.015 329.887 94.9124 338.455 89.3676 352.633Z" fill="white" fill-opacity="0.8"/>
<path d="M67.2703 407.784C67.0935 412.914 67.9486 417.151 71.933 419.823C78.6995 424.36 86.0668 412.596 86.5021 403.888C86.7352 399.224 86.36 395.575 83.1176 392.579C76.9242 386.855 67.5774 398.872 67.2703 407.784Z" fill="white" fill-opacity="0.8"/>
<defs>
<filter id="filter0_d_2_56" x="417.902" y="348.946" width="176.366" height="158.22" filterUnits="userSpaceOnUse" color-interpolation-filters="sRGB">
<feFlood flood-opacity="0" result="BackgroundImageFix"/>
<feColorMatrix in="SourceAlpha" type="matrix" values="0 0 0 0 0 0 0 0 0 0 0 0 0 0 0 0 0 0 127 0" result="hardAlpha"/>
<feOffset dx="10" dy="10"/>
<feColorMatrix type="matrix" values="0 0 0 0 0 0 0 0 0 0 0 0 0 0 0 0 0 0 0.25 0"/>
<feBlend mode="normal" in2="BackgroundImageFix" result="effect1_dropShadow_2_56"/>
<feBlend mode="normal" in="SourceGraphic" in2="effect1_dropShadow_2_56" result="shape"/>
</filter>
</defs>
</svg>
