<svg width="1003" height="1000" viewBox="0 0 1003 1000" fill="none" xmlns="http://www.w3.org/2000/svg">
<path d="M1003 498C1003 755.917 778.366 966 502.5 966C226.634 966 0 756.917 0 499C0 241.083 226.634 32 502.5 32C778.366 32 1003 240.083 1003 498Z" fill="#252525"/>
<path d="M501.431 989.516C753.804 989.516 961.68 798.943 988.982 553.86C989.574 548.552 985.33 543.626 979.426 543.624L23.4072 543.305C17.5022 543.303 13.2558 548.226 13.8438 553.534C41.0083 798.766 248.954 989.516 501.431 989.516Z" fill="#F8F8F8" stroke="#252525" stroke-width="20"/>
<path d="M502.592 10C754.965 10.0001 962.842 200.573 990.144 445.656C990.735 450.964 986.492 455.89 980.587 455.892L24.5689 456.211C18.6639 456.213 14.4175 451.29 15.0054 445.981C42.17 200.75 250.116 10 502.592 10Z" fill="#FF4C41" stroke="#252525" stroke-width="20"/>
<circle cx="502.592" cy="499.257" r="183.55" fill="#252525"/>
<circle cx="502.592" cy="499.257" r="116.805" fill="#F8F8F8"/>
<g filter="url(#filter0_d_2_7)">
<circle cx="502.592" cy="499.257" r="83.432" fill="#F8F8F8"/>
<circle cx="502.592" cy="499.257" r="73.432" stroke="#252525" stroke-width="20"/>
</g>
<path d="M183.545 258.645C183.545 258.645 288.22 173.407 343.641 110.084C356.202 95.7334 370.131 83.4438 374.837 72.6768C383.395 53.0928 333.376 69.1418 311.415 77.9689C228.405 111.333 146.449 183.096 122.466 260.395C115.924 281.481 117.203 299.654 134.004 298.253C145.502 297.293 183.545 258.645 183.545 258.645Z" fill="white" fill-opacity="0.8"/>
<path d="M80.8278 331.817C77.2385 342.816 77.8133 357.093 88.9251 360.314C99.8729 363.488 111.126 341.366 111.126 341.366C111.126 341.366 120.604 317.243 110.368 312.676C102.598 309.209 85.2045 318.407 80.8278 331.817Z" fill="white" fill-opacity="0.8"/>
<path d="M63.2747 384.024C63.5202 388.741 64.7238 392.562 68.9273 394.716C76.0658 398.375 82.4632 387.042 82.1817 379.025C82.0309 374.732 81.3554 371.414 77.867 368.907C71.2039 364.119 62.8482 375.83 63.2747 384.024Z" fill="white" fill-opacity="0.8"/>
<defs>
<filter id="filter0_d_2_7" x="419.16" y="415.825" width="176.864" height="176.864" filterUnits="userSpaceOnUse" color-interpolation-filters="sRGB">
<feFlood flood-opacity="0" result="BackgroundImageFix"/>
<feColorMatrix in="SourceAlpha" type="matrix" values="0 0 0 0 0 0 0 0 0 0 0 0 0 0 0 0 0 0 127 0" result="hardAlpha"/>
<feOffset dx="10" dy="10"/>
<feColorMatrix type="matrix" values="0 0 0 0 0 0 0 0 0 0 0 0 0 0 0 0 0 0 0.25 0"/>
<feBlend mode="normal" in2="BackgroundImageFix" result="effect1_dropShadow_2_7"/>
<feBlend mode="normal" in="SourceGraphic" in2="effect1_dropShadow_2_7" result="shape"/>
</filter>
</defs>
</svg>
