<svg width="4414" height="4493" viewBox="0 0 4414 4493" fill="none" xmlns="http://www.w3.org/2000/svg">
<g filter="url(#filter0_d_7_1133)">
<rect width="4363" height="4426" rx="50" fill="#FFFCEB"/>
<rect x="10" y="10" width="4343" height="4406" rx="40" stroke="black" stroke-width="20"/>
</g>
<path d="M50 10H4313C4335.09 10 4353 27.9086 4353 50V391H10V50C10 27.9086 27.9086 10 50 10Z" fill="#93C0FF" stroke="black" stroke-width="20"/>
<path d="M287.62 123.56L232.84 278H185.76L130.98 123.56H171.02L209.3 240.16L247.8 123.56H287.62ZM322.263 142.48C315.663 142.48 310.236 140.573 305.983 136.76C301.876 132.8 299.823 127.96 299.823 122.24C299.823 116.373 301.876 111.533 305.983 107.72C310.236 103.76 315.663 101.78 322.263 101.78C328.716 101.78 333.996 103.76 338.103 107.72C342.356 111.533 344.483 116.373 344.483 122.24C344.483 127.96 342.356 132.8 338.103 136.76C333.996 140.573 328.716 142.48 322.263 142.48ZM340.963 155.24V278H303.343V155.24H340.963ZM483.946 214.64C483.946 218.16 483.726 221.827 483.286 225.64H398.146C398.733 233.267 401.153 239.133 405.406 243.24C409.806 247.2 415.159 249.18 421.466 249.18C430.853 249.18 437.379 245.22 441.046 237.3H481.086C479.033 245.367 475.293 252.627 469.866 259.08C464.586 265.533 457.913 270.593 449.846 274.26C441.779 277.927 432.759 279.76 422.786 279.76C410.759 279.76 400.053 277.193 390.666 272.06C381.279 266.927 373.946 259.593 368.666 250.06C363.386 240.527 360.746 229.38 360.746 216.62C360.746 203.86 363.313 192.713 368.446 183.18C373.726 173.647 381.059 166.313 390.446 161.18C399.833 156.047 410.613 153.48 422.786 153.48C434.666 153.48 445.226 155.973 454.466 160.96C463.706 165.947 470.893 173.06 476.026 182.3C481.306 191.54 483.946 202.32 483.946 214.64ZM445.446 204.74C445.446 198.287 443.246 193.153 438.846 189.34C434.446 185.527 428.946 183.62 422.346 183.62C416.039 183.62 410.686 185.453 406.286 189.12C402.033 192.787 399.393 197.993 398.366 204.74H445.446ZM680.012 155.24L646.792 278H605.212L585.852 198.36L565.832 278H524.472L491.032 155.24H528.652L546.032 243.02L566.712 155.24H606.532L627.432 242.58L644.592 155.24H680.012ZM810.079 214.64C810.079 218.16 809.859 221.827 809.419 225.64H724.279C724.865 233.267 727.285 239.133 731.539 243.24C735.939 247.2 741.292 249.18 747.599 249.18C756.985 249.18 763.512 245.22 767.179 237.3H807.219C805.165 245.367 801.425 252.627 795.999 259.08C790.719 265.533 784.045 270.593 775.979 274.26C767.912 277.927 758.892 279.76 748.919 279.76C736.892 279.76 726.185 277.193 716.799 272.06C707.412 266.927 700.079 259.593 694.799 250.06C689.519 240.527 686.879 229.38 686.879 216.62C686.879 203.86 689.445 192.713 694.579 183.18C699.859 173.647 707.192 166.313 716.579 161.18C725.965 156.047 736.745 153.48 748.919 153.48C760.799 153.48 771.359 155.973 780.599 160.96C789.839 165.947 797.025 173.06 802.159 182.3C807.439 191.54 810.079 202.32 810.079 214.64ZM771.579 204.74C771.579 198.287 769.379 193.153 764.979 189.34C760.579 185.527 755.079 183.62 748.479 183.62C742.172 183.62 736.819 185.453 732.419 189.12C728.165 192.787 725.525 197.993 724.499 204.74H771.579ZM867.545 175.7C871.945 168.953 877.445 163.673 884.045 159.86C890.645 155.9 897.978 153.92 906.045 153.92V193.74H895.705C886.318 193.74 879.278 195.793 874.585 199.9C869.892 203.86 867.545 210.9 867.545 221.02V278H829.925V155.24H867.545V175.7Z" fill="black"/>
<defs>
<filter id="filter0_d_7_1133" x="0" y="0" width="4414" height="4493" filterUnits="userSpaceOnUse" color-interpolation-filters="sRGB">
<feFlood flood-opacity="0" result="BackgroundImageFix"/>
<feColorMatrix in="SourceAlpha" type="matrix" values="0 0 0 0 0 0 0 0 0 0 0 0 0 0 0 0 0 0 127 0" result="hardAlpha"/>
<feOffset dx="47" dy="63"/>
<feGaussianBlur stdDeviation="2"/>
<feComposite in2="hardAlpha" operator="out"/>
<feColorMatrix type="matrix" values="0 0 0 0 0 0 0 0 0 0 0 0 0 0 0 0 0 0 0.25 0"/>
<feBlend mode="normal" in2="BackgroundImageFix" result="effect1_dropShadow_7_1133"/>
<feBlend mode="normal" in="SourceGraphic" in2="effect1_dropShadow_7_1133" result="shape"/>
</filter>
</defs>
</svg>
